<mxfile host="Electron" modified="2024-03-19T07:24:09.047Z" agent="Mozilla/5.0 (Windows NT 10.0; Win64; x64) AppleWebKit/537.36 (KHTML, like Gecko) draw.io/24.0.4 Chrome/120.0.6099.109 Electron/28.1.0 Safari/537.36" etag="aKYtovzJX_fKEL4IG-L9" version="24.0.4" type="device">
  <diagram name="Page-1" id="yiowPWi1wD7vBIXToP4I">
    <mxGraphModel dx="1274" dy="1106" grid="1" gridSize="10" guides="1" tooltips="1" connect="1" arrows="1" fold="1" page="1" pageScale="1" pageWidth="827" pageHeight="1169" math="1" shadow="0">
      <root>
        <mxCell id="0" />
        <mxCell id="1" parent="0" />
        <mxCell id="BA__oU5tt2OgbXEU4e_M-20" value="" style="shape=mxgraph.pid.vessels.jacketed_mixing_vessel;html=1;pointerEvents=1;align=center;verticalLabelPosition=bottom;verticalAlign=top;dashed=0;strokeWidth=2;" parent="1" vertex="1">
          <mxGeometry x="346.6018948121433" y="125" width="116.66225130031742" height="203" as="geometry" />
        </mxCell>
        <mxCell id="BA__oU5tt2OgbXEU4e_M-43" style="edgeStyle=none;rounded=0;orthogonalLoop=1;jettySize=auto;html=1;strokeColor=default;align=center;verticalAlign=middle;fontFamily=Helvetica;fontSize=11;fontColor=default;labelBackgroundColor=default;endArrow=blockThin;endFill=1;strokeWidth=2;" parent="1" edge="1">
          <mxGeometry relative="1" as="geometry">
            <mxPoint x="200.00250883023585" y="359.99765625" as="sourcePoint" />
            <mxPoint x="280" y="360" as="targetPoint" />
          </mxGeometry>
        </mxCell>
        <mxCell id="BA__oU5tt2OgbXEU4e_M-45" style="edgeStyle=none;rounded=0;orthogonalLoop=1;jettySize=auto;html=1;strokeColor=default;align=center;verticalAlign=middle;fontFamily=Helvetica;fontSize=11;fontColor=default;labelBackgroundColor=default;endArrow=blockThin;endFill=1;strokeWidth=2;entryX=0.082;entryY=0.516;entryDx=0;entryDy=0;entryPerimeter=0;" parent="1" edge="1" target="BA__oU5tt2OgbXEU4e_M-20">
          <mxGeometry relative="1" as="geometry">
            <mxPoint x="280" y="360" as="sourcePoint" />
            <mxPoint x="356.11749116976415" y="226.72203125000016" as="targetPoint" />
            <Array as="points">
              <mxPoint x="280" y="230" />
            </Array>
          </mxGeometry>
        </mxCell>
        <mxCell id="BA__oU5tt2OgbXEU4e_M-4" value="$$F_{A0} (C_{A0}\upsilon_0)$$" style="text;html=1;align=center;verticalAlign=middle;resizable=0;points=[];autosize=1;strokeColor=none;fillColor=none;fontFamily=Helvetica;fontSize=11;fontColor=default;labelBackgroundColor=default;" parent="1" vertex="1">
          <mxGeometry x="114" y="326" width="180" height="30" as="geometry" />
        </mxCell>
        <mxCell id="d5BGwCQqyXG_FMDgzuRo-1" value="$$F_{A0,1}$$" style="text;html=1;align=center;verticalAlign=middle;resizable=0;points=[];autosize=1;strokeColor=none;fillColor=none;fontFamily=Helvetica;fontSize=11;fontColor=default;labelBackgroundColor=default;" parent="1" vertex="1">
          <mxGeometry x="259" y="193" width="90" height="30" as="geometry" />
        </mxCell>
        <mxCell id="d5BGwCQqyXG_FMDgzuRo-8" value="$$F_{A1}$$" style="text;html=1;align=center;verticalAlign=middle;resizable=0;points=[];autosize=1;strokeColor=none;fillColor=none;fontFamily=Helvetica;fontSize=11;fontColor=default;labelBackgroundColor=default;" parent="1" vertex="1">
          <mxGeometry x="454" y="198" width="80" height="30" as="geometry" />
        </mxCell>
        <mxCell id="W9XxQ4_cIeHl-PAm3VZp-2" value="" style="shape=mxgraph.pid.vessels.jacketed_mixing_vessel;html=1;pointerEvents=1;align=center;verticalLabelPosition=bottom;verticalAlign=top;dashed=0;strokeWidth=2;" vertex="1" parent="1">
          <mxGeometry x="346.6018948121433" y="382" width="116.66225130031742" height="203" as="geometry" />
        </mxCell>
        <mxCell id="W9XxQ4_cIeHl-PAm3VZp-3" style="edgeStyle=none;rounded=0;orthogonalLoop=1;jettySize=auto;html=1;strokeColor=default;align=center;verticalAlign=middle;fontFamily=Helvetica;fontSize=11;fontColor=default;labelBackgroundColor=default;endArrow=blockThin;endFill=1;strokeWidth=2;" edge="1" parent="1">
          <mxGeometry relative="1" as="geometry">
            <mxPoint x="280" y="360" as="sourcePoint" />
            <mxPoint x="356.11749116976415" y="483.72203125000016" as="targetPoint" />
            <Array as="points">
              <mxPoint x="280" y="484" />
            </Array>
          </mxGeometry>
        </mxCell>
        <mxCell id="W9XxQ4_cIeHl-PAm3VZp-7" style="edgeStyle=none;rounded=0;orthogonalLoop=1;jettySize=auto;html=1;strokeColor=default;align=center;verticalAlign=middle;fontFamily=Helvetica;fontSize=11;fontColor=default;labelBackgroundColor=default;endArrow=blockThin;endFill=1;strokeWidth=2;exitX=0.901;exitY=0.518;exitDx=0;exitDy=0;exitPerimeter=0;" edge="1" parent="1" source="BA__oU5tt2OgbXEU4e_M-20">
          <mxGeometry relative="1" as="geometry">
            <mxPoint x="480" y="230" as="sourcePoint" />
            <mxPoint x="520" y="360" as="targetPoint" />
            <Array as="points">
              <mxPoint x="520" y="230" />
            </Array>
          </mxGeometry>
        </mxCell>
        <mxCell id="W9XxQ4_cIeHl-PAm3VZp-10" style="edgeStyle=none;rounded=0;orthogonalLoop=1;jettySize=auto;html=1;strokeColor=default;align=center;verticalAlign=middle;fontFamily=Helvetica;fontSize=11;fontColor=default;labelBackgroundColor=default;endArrow=blockThin;endFill=1;strokeWidth=2;" edge="1" parent="1">
          <mxGeometry relative="1" as="geometry">
            <mxPoint x="520.0025088302359" y="359.99765625" as="sourcePoint" />
            <mxPoint x="600" y="360" as="targetPoint" />
          </mxGeometry>
        </mxCell>
        <mxCell id="W9XxQ4_cIeHl-PAm3VZp-11" style="edgeStyle=none;rounded=0;orthogonalLoop=1;jettySize=auto;html=1;strokeColor=default;align=center;verticalAlign=middle;fontFamily=Helvetica;fontSize=11;fontColor=default;labelBackgroundColor=default;endArrow=blockThin;endFill=1;strokeWidth=2;exitX=0.907;exitY=0.507;exitDx=0;exitDy=0;exitPerimeter=0;" edge="1" parent="1" source="W9XxQ4_cIeHl-PAm3VZp-2">
          <mxGeometry relative="1" as="geometry">
            <mxPoint x="452.18123223893065" y="494.19900000000007" as="sourcePoint" />
            <mxPoint x="520" y="360" as="targetPoint" />
            <Array as="points">
              <mxPoint x="520" y="484" />
            </Array>
          </mxGeometry>
        </mxCell>
        <mxCell id="W9XxQ4_cIeHl-PAm3VZp-12" value="$$F_{A0,2}$$" style="text;html=1;align=center;verticalAlign=middle;resizable=0;points=[];autosize=1;strokeColor=none;fillColor=none;fontFamily=Helvetica;fontSize=11;fontColor=default;labelBackgroundColor=default;" vertex="1" parent="1">
          <mxGeometry x="259" y="450" width="90" height="30" as="geometry" />
        </mxCell>
        <mxCell id="W9XxQ4_cIeHl-PAm3VZp-13" value="$$F_{A2}$$" style="text;html=1;align=center;verticalAlign=middle;resizable=0;points=[];autosize=1;strokeColor=none;fillColor=none;fontFamily=Helvetica;fontSize=11;fontColor=default;labelBackgroundColor=default;" vertex="1" parent="1">
          <mxGeometry x="454" y="450" width="80" height="30" as="geometry" />
        </mxCell>
      </root>
    </mxGraphModel>
  </diagram>
</mxfile>
